<mxfile host="Electron" modified="2024-02-26T04:04:31.426Z" agent="Mozilla/5.0 (Windows NT 10.0; Win64; x64) AppleWebKit/537.36 (KHTML, like Gecko) draw.io/23.0.2 Chrome/120.0.6099.109 Electron/28.1.0 Safari/537.36" etag="FInBuDFUPYdPqgcKb8OM" version="23.0.2" type="device">
  <diagram name="Page-1" id="7NUPBbQoDnZ58nX0GlFf">
    <mxGraphModel dx="3428" dy="1524" grid="1" gridSize="10" guides="1" tooltips="1" connect="1" arrows="1" fold="1" page="1" pageScale="1" pageWidth="850" pageHeight="1400" math="0" shadow="0">
      <root>
        <mxCell id="0" />
        <mxCell id="1" parent="0" />
        <mxCell id="5cK6sB0yTW3nAjwJAp6L-13" style="edgeStyle=orthogonalEdgeStyle;rounded=0;sketch=1;hachureGap=4;jiggle=2;curveFitting=1;orthogonalLoop=1;jettySize=auto;html=1;exitX=0.5;exitY=1;exitDx=0;exitDy=0;entryX=0.5;entryY=0;entryDx=0;entryDy=0;fontFamily=Architects Daughter;fontSource=https%3A%2F%2Ffonts.googleapis.com%2Fcss%3Ffamily%3DArchitects%2BDaughter;fontSize=16;" parent="1" source="5cK6sB0yTW3nAjwJAp6L-1" target="5cK6sB0yTW3nAjwJAp6L-2" edge="1">
          <mxGeometry relative="1" as="geometry" />
        </mxCell>
        <mxCell id="5cK6sB0yTW3nAjwJAp6L-14" style="edgeStyle=orthogonalEdgeStyle;rounded=0;sketch=1;hachureGap=4;jiggle=2;curveFitting=1;orthogonalLoop=1;jettySize=auto;html=1;exitX=0.5;exitY=1;exitDx=0;exitDy=0;entryX=0.5;entryY=0;entryDx=0;entryDy=0;fontFamily=Architects Daughter;fontSource=https%3A%2F%2Ffonts.googleapis.com%2Fcss%3Ffamily%3DArchitects%2BDaughter;fontSize=16;" parent="1" source="5cK6sB0yTW3nAjwJAp6L-1" target="5cK6sB0yTW3nAjwJAp6L-5" edge="1">
          <mxGeometry relative="1" as="geometry">
            <Array as="points">
              <mxPoint x="-780" y="500" />
              <mxPoint x="-320" y="500" />
            </Array>
          </mxGeometry>
        </mxCell>
        <mxCell id="5cK6sB0yTW3nAjwJAp6L-15" style="edgeStyle=orthogonalEdgeStyle;rounded=0;sketch=1;hachureGap=4;jiggle=2;curveFitting=1;orthogonalLoop=1;jettySize=auto;html=1;exitX=0.5;exitY=1;exitDx=0;exitDy=0;entryX=0.5;entryY=0;entryDx=0;entryDy=0;fontFamily=Architects Daughter;fontSource=https%3A%2F%2Ffonts.googleapis.com%2Fcss%3Ffamily%3DArchitects%2BDaughter;fontSize=16;" parent="1" source="5cK6sB0yTW3nAjwJAp6L-1" target="5cK6sB0yTW3nAjwJAp6L-3" edge="1">
          <mxGeometry relative="1" as="geometry">
            <Array as="points">
              <mxPoint x="-780" y="510" />
              <mxPoint x="290" y="510" />
            </Array>
          </mxGeometry>
        </mxCell>
        <mxCell id="5cK6sB0yTW3nAjwJAp6L-16" style="edgeStyle=orthogonalEdgeStyle;rounded=0;sketch=1;hachureGap=4;jiggle=2;curveFitting=1;orthogonalLoop=1;jettySize=auto;html=1;exitX=0.5;exitY=1;exitDx=0;exitDy=0;entryX=0.5;entryY=0;entryDx=0;entryDy=0;fontFamily=Architects Daughter;fontSource=https%3A%2F%2Ffonts.googleapis.com%2Fcss%3Ffamily%3DArchitects%2BDaughter;fontSize=16;" parent="1" source="5cK6sB0yTW3nAjwJAp6L-1" target="5cK6sB0yTW3nAjwJAp6L-10" edge="1">
          <mxGeometry relative="1" as="geometry">
            <Array as="points">
              <mxPoint x="-780" y="500" />
              <mxPoint x="840" y="500" />
            </Array>
          </mxGeometry>
        </mxCell>
        <mxCell id="5cK6sB0yTW3nAjwJAp6L-17" style="edgeStyle=orthogonalEdgeStyle;rounded=0;sketch=1;hachureGap=4;jiggle=2;curveFitting=1;orthogonalLoop=1;jettySize=auto;html=1;exitX=0.5;exitY=1;exitDx=0;exitDy=0;entryX=0.5;entryY=0;entryDx=0;entryDy=0;fontFamily=Architects Daughter;fontSource=https%3A%2F%2Ffonts.googleapis.com%2Fcss%3Ffamily%3DArchitects%2BDaughter;fontSize=16;" parent="1" source="5cK6sB0yTW3nAjwJAp6L-1" target="5cK6sB0yTW3nAjwJAp6L-4" edge="1">
          <mxGeometry relative="1" as="geometry">
            <Array as="points">
              <mxPoint x="-780" y="510" />
              <mxPoint x="1265" y="510" />
            </Array>
          </mxGeometry>
        </mxCell>
        <mxCell id="5cK6sB0yTW3nAjwJAp6L-38" style="edgeStyle=orthogonalEdgeStyle;rounded=0;sketch=1;hachureGap=4;jiggle=2;curveFitting=1;orthogonalLoop=1;jettySize=auto;html=1;exitX=0.5;exitY=1;exitDx=0;exitDy=0;entryX=0.5;entryY=0;entryDx=0;entryDy=0;fontFamily=Architects Daughter;fontSource=https%3A%2F%2Ffonts.googleapis.com%2Fcss%3Ffamily%3DArchitects%2BDaughter;fontSize=16;" parent="1" source="5cK6sB0yTW3nAjwJAp6L-1" target="5cK6sB0yTW3nAjwJAp6L-7" edge="1">
          <mxGeometry relative="1" as="geometry">
            <Array as="points">
              <mxPoint x="-780" y="510" />
              <mxPoint x="1635" y="510" />
            </Array>
          </mxGeometry>
        </mxCell>
        <mxCell id="5cK6sB0yTW3nAjwJAp6L-1" value="Home" style="rounded=0;whiteSpace=wrap;html=1;sketch=1;hachureGap=4;jiggle=2;curveFitting=1;fontFamily=Architects Daughter;fontSource=https%3A%2F%2Ffonts.googleapis.com%2Fcss%3Ffamily%3DArchitects%2BDaughter;fontSize=20;" parent="1" vertex="1">
          <mxGeometry x="-840" y="20" width="120" height="60" as="geometry" />
        </mxCell>
        <mxCell id="5cK6sB0yTW3nAjwJAp6L-2" value="About Us" style="rounded=0;whiteSpace=wrap;html=1;sketch=1;hachureGap=4;jiggle=2;curveFitting=1;fontFamily=Architects Daughter;fontSource=https%3A%2F%2Ffonts.googleapis.com%2Fcss%3Ffamily%3DArchitects%2BDaughter;fontSize=20;fillColor=#a20025;fontColor=#ffffff;strokeColor=#6F0000;" parent="1" vertex="1">
          <mxGeometry x="-840" y="580" width="120" height="60" as="geometry" />
        </mxCell>
        <mxCell id="5cK6sB0yTW3nAjwJAp6L-3" value="Conctact Us" style="rounded=0;whiteSpace=wrap;html=1;sketch=1;hachureGap=4;jiggle=2;curveFitting=1;fontFamily=Architects Daughter;fontSource=https%3A%2F%2Ffonts.googleapis.com%2Fcss%3Ffamily%3DArchitects%2BDaughter;fontSize=20;fillColor=#60a917;fontColor=#ffffff;strokeColor=#2D7600;" parent="1" vertex="1">
          <mxGeometry x="240" y="570" width="120" height="60" as="geometry" />
        </mxCell>
        <mxCell id="5cK6sB0yTW3nAjwJAp6L-4" value="Privacy/Logal Page" style="rounded=0;whiteSpace=wrap;html=1;sketch=1;hachureGap=4;jiggle=2;curveFitting=1;fontFamily=Architects Daughter;fontSource=https%3A%2F%2Ffonts.googleapis.com%2Fcss%3Ffamily%3DArchitects%2BDaughter;fontSize=20;fillColor=#60a917;fontColor=#ffffff;strokeColor=#2D7600;" parent="1" vertex="1">
          <mxGeometry x="1160" y="580" width="230" height="60" as="geometry" />
        </mxCell>
        <mxCell id="5cK6sB0yTW3nAjwJAp6L-5" value="Register/Login" style="rounded=1;whiteSpace=wrap;html=1;sketch=1;hachureGap=4;jiggle=2;curveFitting=1;fontFamily=Architects Daughter;fontSource=https%3A%2F%2Ffonts.googleapis.com%2Fcss%3Ffamily%3DArchitects%2BDaughter;fontSize=20;fillColor=#a20025;fontColor=#ffffff;strokeColor=#6F0000;" parent="1" vertex="1">
          <mxGeometry x="-400" y="570" width="180" height="60" as="geometry" />
        </mxCell>
        <mxCell id="5cK6sB0yTW3nAjwJAp6L-6" value="Account Page" style="rounded=0;whiteSpace=wrap;html=1;sketch=1;hachureGap=4;jiggle=2;curveFitting=1;fontFamily=Architects Daughter;fontSource=https%3A%2F%2Ffonts.googleapis.com%2Fcss%3Ffamily%3DArchitects%2BDaughter;fontSize=20;" parent="1" vertex="1">
          <mxGeometry x="-400" y="1010" width="180" height="60" as="geometry" />
        </mxCell>
        <mxCell id="5cK6sB0yTW3nAjwJAp6L-7" value="Product Categories Page" style="rounded=0;whiteSpace=wrap;html=1;sketch=1;hachureGap=4;jiggle=2;curveFitting=1;fontFamily=Architects Daughter;fontSource=https%3A%2F%2Ffonts.googleapis.com%2Fcss%3Ffamily%3DArchitects%2BDaughter;fontSize=20;fillColor=#0050ef;fontColor=#ffffff;strokeColor=#001DBC;" parent="1" vertex="1">
          <mxGeometry x="1480" y="570" width="330" height="60" as="geometry" />
        </mxCell>
        <mxCell id="5cK6sB0yTW3nAjwJAp6L-8" value="Category Page" style="rounded=0;whiteSpace=wrap;html=1;sketch=1;hachureGap=4;jiggle=2;curveFitting=1;fontFamily=Architects Daughter;fontSource=https%3A%2F%2Ffonts.googleapis.com%2Fcss%3Ffamily%3DArchitects%2BDaughter;fontSize=20;" parent="1" vertex="1">
          <mxGeometry x="1960" y="930" width="270" height="60" as="geometry" />
        </mxCell>
        <mxCell id="5cK6sB0yTW3nAjwJAp6L-9" value="Product Pages" style="rounded=0;whiteSpace=wrap;html=1;sketch=1;hachureGap=4;jiggle=2;curveFitting=1;fontFamily=Architects Daughter;fontSource=https%3A%2F%2Ffonts.googleapis.com%2Fcss%3Ffamily%3DArchitects%2BDaughter;fontSize=20;" parent="1" vertex="1">
          <mxGeometry x="1480" y="930" width="190" height="60" as="geometry" />
        </mxCell>
        <mxCell id="5cK6sB0yTW3nAjwJAp6L-10" value="Shopping Cart" style="rounded=0;whiteSpace=wrap;html=1;sketch=1;hachureGap=4;jiggle=2;curveFitting=1;fontFamily=Architects Daughter;fontSource=https%3A%2F%2Ffonts.googleapis.com%2Fcss%3Ffamily%3DArchitects%2BDaughter;fontSize=20;fillColor=#a20025;fontColor=#ffffff;strokeColor=#6F0000;" parent="1" vertex="1">
          <mxGeometry x="720" y="580" width="260" height="60" as="geometry" />
        </mxCell>
        <mxCell id="5cK6sB0yTW3nAjwJAp6L-11" value="Checkout Page" style="rounded=0;whiteSpace=wrap;html=1;sketch=1;hachureGap=4;jiggle=2;curveFitting=1;fontFamily=Architects Daughter;fontSource=https%3A%2F%2Ffonts.googleapis.com%2Fcss%3Ffamily%3DArchitects%2BDaughter;fontSize=20;" parent="1" vertex="1">
          <mxGeometry x="720" y="970" width="200" height="60" as="geometry" />
        </mxCell>
        <mxCell id="5cK6sB0yTW3nAjwJAp6L-12" value="Must include&lt;br&gt;&lt;ul&gt;&lt;li style=&quot;text-align: left;&quot;&gt;Tagline or slogan&lt;/li&gt;&lt;ul&gt;&lt;li style=&quot;text-align: left;&quot;&gt;A few words or brief sentence summarizing what your organization does. This could be a mission statement or something similar.&lt;/li&gt;&lt;/ul&gt;&lt;li style=&quot;text-align: left;&quot;&gt;Tell your story&lt;/li&gt;&lt;ul&gt;&lt;li style=&quot;text-align: left;&quot;&gt;1-3 paragraghs that offer more detail about the history, goals, and main accomplishments of your organization&lt;/li&gt;&lt;/ul&gt;&lt;/ul&gt;" style="rounded=0;whiteSpace=wrap;html=1;sketch=1;hachureGap=4;jiggle=2;curveFitting=1;fontFamily=Architects Daughter;fontSource=https%3A%2F%2Ffonts.googleapis.com%2Fcss%3Ffamily%3DArchitects%2BDaughter;fontSize=20;" parent="1" vertex="1">
          <mxGeometry x="-839" y="640" width="399" height="379" as="geometry" />
        </mxCell>
        <mxCell id="5cK6sB0yTW3nAjwJAp6L-26" style="edgeStyle=orthogonalEdgeStyle;rounded=0;sketch=1;hachureGap=4;jiggle=2;curveFitting=1;orthogonalLoop=1;jettySize=auto;html=1;exitX=0.5;exitY=1;exitDx=0;exitDy=0;entryX=0.5;entryY=0;entryDx=0;entryDy=0;fontFamily=Architects Daughter;fontSource=https%3A%2F%2Ffonts.googleapis.com%2Fcss%3Ffamily%3DArchitects%2BDaughter;fontSize=16;" parent="1" source="5cK6sB0yTW3nAjwJAp6L-23" target="5cK6sB0yTW3nAjwJAp6L-6" edge="1">
          <mxGeometry relative="1" as="geometry" />
        </mxCell>
        <mxCell id="5cK6sB0yTW3nAjwJAp6L-23" value="&lt;div style=&quot;text-align: center;&quot;&gt;&lt;span style=&quot;background-color: initial;&quot;&gt;Must Include&lt;/span&gt;&lt;/div&gt;&lt;ul&gt;&lt;li&gt;&lt;span style=&quot;background-color: initial;&quot;&gt;Fully functioning registration process with backend support to store username and password.&lt;/span&gt;&lt;/li&gt;&lt;li&gt;admin login capabilities.&lt;/li&gt;&lt;ul&gt;&lt;li&gt;admin must be able to add, remove and edit products.&lt;/li&gt;&lt;li&gt;must also be able to review all previous orders by any customer.&lt;/li&gt;&lt;li&gt;you can add any other admin functionality you wish&lt;/li&gt;&lt;/ul&gt;&lt;/ul&gt;" style="rounded=0;whiteSpace=wrap;html=1;sketch=1;hachureGap=4;jiggle=2;curveFitting=1;fontFamily=Architects Daughter;fontSource=https%3A%2F%2Ffonts.googleapis.com%2Fcss%3Ffamily%3DArchitects%2BDaughter;fontSize=20;align=left;" parent="1" vertex="1">
          <mxGeometry x="-400" y="630" width="600" height="330" as="geometry" />
        </mxCell>
        <mxCell id="5cK6sB0yTW3nAjwJAp6L-27" value="&lt;div style=&quot;&quot;&gt;Must include&lt;/div&gt;&lt;div style=&quot;text-align: left;&quot;&gt;&lt;ul&gt;&lt;li&gt;Ability to update and edit personal information&lt;/li&gt;&lt;li&gt;Reset password capabilities&lt;/li&gt;&lt;li&gt;View past orders and purchases (or current/past subscriptions)&lt;/li&gt;&lt;/ul&gt;&lt;/div&gt;" style="rounded=0;whiteSpace=wrap;html=1;sketch=1;hachureGap=4;jiggle=2;curveFitting=1;fontFamily=Architects Daughter;fontSource=https%3A%2F%2Ffonts.googleapis.com%2Fcss%3Ffamily%3DArchitects%2BDaughter;fontSize=20;align=center;" parent="1" vertex="1">
          <mxGeometry x="-400" y="1070" width="490" height="260" as="geometry" />
        </mxCell>
        <mxCell id="5cK6sB0yTW3nAjwJAp6L-28" value="&lt;div style=&quot;text-align: center;&quot;&gt;&lt;span style=&quot;background-color: initial;&quot;&gt;Must Include&lt;/span&gt;&lt;/div&gt;&lt;ul&gt;&lt;li style=&quot;&quot;&gt;Address&lt;/li&gt;&lt;li&gt;Phone Number(s)&lt;/li&gt;&lt;li&gt;Contact form&lt;/li&gt;&lt;li&gt;Email&lt;/li&gt;&lt;li&gt;NOTE: This information should be fictitious&lt;/li&gt;&lt;/ul&gt;" style="rounded=0;whiteSpace=wrap;html=1;sketch=1;hachureGap=4;jiggle=2;curveFitting=1;fontFamily=Architects Daughter;fontSource=https%3A%2F%2Ffonts.googleapis.com%2Fcss%3Ffamily%3DArchitects%2BDaughter;fontSize=20;align=left;" parent="1" vertex="1">
          <mxGeometry x="240" y="630" width="420" height="280" as="geometry" />
        </mxCell>
        <mxCell id="5cK6sB0yTW3nAjwJAp6L-30" style="edgeStyle=orthogonalEdgeStyle;rounded=0;sketch=1;hachureGap=4;jiggle=2;curveFitting=1;orthogonalLoop=1;jettySize=auto;html=1;exitX=0.5;exitY=1;exitDx=0;exitDy=0;entryX=0.5;entryY=0;entryDx=0;entryDy=0;fontFamily=Architects Daughter;fontSource=https%3A%2F%2Ffonts.googleapis.com%2Fcss%3Ffamily%3DArchitects%2BDaughter;fontSize=16;" parent="1" source="5cK6sB0yTW3nAjwJAp6L-29" target="5cK6sB0yTW3nAjwJAp6L-11" edge="1">
          <mxGeometry relative="1" as="geometry" />
        </mxCell>
        <mxCell id="5cK6sB0yTW3nAjwJAp6L-29" value="&lt;div style=&quot;text-align: center;&quot;&gt;&lt;span style=&quot;background-color: initial;&quot;&gt;Must Include&lt;/span&gt;&lt;/div&gt;&lt;ul&gt;&lt;li&gt;If cart is empty, some sort of text to display that information&lt;/li&gt;&lt;li&gt;Each cart item must display:&lt;/li&gt;&lt;ul&gt;&lt;li&gt;Image&lt;/li&gt;&lt;li&gt;Product name&lt;/li&gt;&lt;li&gt;Quantity&lt;/li&gt;&lt;li&gt;Price&lt;/li&gt;&lt;/ul&gt;&lt;/ul&gt;" style="rounded=0;whiteSpace=wrap;html=1;sketch=1;hachureGap=4;jiggle=2;curveFitting=1;fontFamily=Architects Daughter;fontSource=https%3A%2F%2Ffonts.googleapis.com%2Fcss%3Ffamily%3DArchitects%2BDaughter;fontSize=20;align=left;" parent="1" vertex="1">
          <mxGeometry x="720" y="640" width="400" height="280" as="geometry" />
        </mxCell>
        <mxCell id="5cK6sB0yTW3nAjwJAp6L-31" value="&lt;div style=&quot;text-align: center;&quot;&gt;&lt;span style=&quot;background-color: initial;&quot;&gt;Must include&lt;/span&gt;&lt;/div&gt;&lt;ul&gt;&lt;li style=&quot;text-align: center;&quot;&gt;Shipping address information&lt;/li&gt;&lt;li&gt;Payment method information&lt;/li&gt;&lt;li&gt;A review of the cart to include:&lt;/li&gt;&lt;ul&gt;&lt;li&gt;Image&lt;/li&gt;&lt;li&gt;Product Name&lt;/li&gt;&lt;li&gt;Quantity&lt;/li&gt;&lt;li&gt;Price&lt;/li&gt;&lt;/ul&gt;&lt;li&gt;Order total (after 5% sales tax)&lt;/li&gt;&lt;li&gt;Place order button&lt;/li&gt;&lt;/ul&gt;" style="rounded=0;whiteSpace=wrap;html=1;sketch=1;hachureGap=4;jiggle=2;curveFitting=1;fontFamily=Architects Daughter;fontSource=https%3A%2F%2Ffonts.googleapis.com%2Fcss%3Ffamily%3DArchitects%2BDaughter;fontSize=20;align=left;" parent="1" vertex="1">
          <mxGeometry x="720" y="1030" width="340" height="370" as="geometry" />
        </mxCell>
        <mxCell id="5cK6sB0yTW3nAjwJAp6L-32" value="&lt;div style=&quot;text-align: center;&quot;&gt;&lt;span style=&quot;background-color: initial;&quot;&gt;Must include&lt;/span&gt;&lt;/div&gt;&lt;ul&gt;&lt;li&gt;A privacy policy&amp;nbsp;&lt;/li&gt;&lt;li&gt;A return plicy&lt;/li&gt;&lt;li&gt;free to use example ones&lt;/li&gt;&lt;/ul&gt;" style="rounded=0;whiteSpace=wrap;html=1;sketch=1;hachureGap=4;jiggle=2;curveFitting=1;fontFamily=Architects Daughter;fontSource=https%3A%2F%2Ffonts.googleapis.com%2Fcss%3Ffamily%3DArchitects%2BDaughter;fontSize=20;align=left;" parent="1" vertex="1">
          <mxGeometry x="1160" y="640" width="280" height="210" as="geometry" />
        </mxCell>
        <mxCell id="5cK6sB0yTW3nAjwJAp6L-36" style="edgeStyle=orthogonalEdgeStyle;rounded=0;sketch=1;hachureGap=4;jiggle=2;curveFitting=1;orthogonalLoop=1;jettySize=auto;html=1;exitX=0.5;exitY=1;exitDx=0;exitDy=0;entryX=0.5;entryY=0;entryDx=0;entryDy=0;fontFamily=Architects Daughter;fontSource=https%3A%2F%2Ffonts.googleapis.com%2Fcss%3Ffamily%3DArchitects%2BDaughter;fontSize=16;" parent="1" source="5cK6sB0yTW3nAjwJAp6L-33" target="5cK6sB0yTW3nAjwJAp6L-9" edge="1">
          <mxGeometry relative="1" as="geometry" />
        </mxCell>
        <mxCell id="5cK6sB0yTW3nAjwJAp6L-37" style="edgeStyle=orthogonalEdgeStyle;rounded=0;sketch=1;hachureGap=4;jiggle=2;curveFitting=1;orthogonalLoop=1;jettySize=auto;html=1;exitX=0.5;exitY=1;exitDx=0;exitDy=0;entryX=0.5;entryY=0;entryDx=0;entryDy=0;fontFamily=Architects Daughter;fontSource=https%3A%2F%2Ffonts.googleapis.com%2Fcss%3Ffamily%3DArchitects%2BDaughter;fontSize=16;" parent="1" source="5cK6sB0yTW3nAjwJAp6L-33" target="5cK6sB0yTW3nAjwJAp6L-8" edge="1">
          <mxGeometry relative="1" as="geometry" />
        </mxCell>
        <mxCell id="5cK6sB0yTW3nAjwJAp6L-33" value="&lt;ul&gt;&lt;li&gt;A landing page to see all the categories of products you offer&lt;/li&gt;&lt;li&gt;at least 4 different categories of products&lt;/li&gt;&lt;li&gt;You must build at least two categories of products with a minimum of 5 products in each&lt;/li&gt;&lt;ul&gt;&lt;li&gt;visit potential competitors&#39; websites and see what the use for categories and subcategories. Use this as a reference, not a carbon copy.&lt;/li&gt;&lt;/ul&gt;&lt;/ul&gt;" style="rounded=0;whiteSpace=wrap;html=1;sketch=1;hachureGap=4;jiggle=2;curveFitting=1;fontFamily=Architects Daughter;fontSource=https%3A%2F%2Ffonts.googleapis.com%2Fcss%3Ffamily%3DArchitects%2BDaughter;fontSize=20;align=left;" parent="1" vertex="1">
          <mxGeometry x="1480" y="630" width="650" height="250" as="geometry" />
        </mxCell>
        <mxCell id="5cK6sB0yTW3nAjwJAp6L-34" value="&lt;ul&gt;&lt;li style=&quot;text-align: left;&quot;&gt;Pictures, descriptions, quantity, and price information for each product/service&lt;/li&gt;&lt;li style=&quot;text-align: left;&quot;&gt;add to cart functionality, including a way to add multiples of the same item.&lt;/li&gt;&lt;/ul&gt;" style="rounded=0;whiteSpace=wrap;html=1;sketch=1;hachureGap=4;jiggle=2;curveFitting=1;fontFamily=Architects Daughter;fontSource=https%3A%2F%2Ffonts.googleapis.com%2Fcss%3Ffamily%3DArchitects%2BDaughter;fontSize=20;" parent="1" vertex="1">
          <mxGeometry x="1480" y="990" width="420" height="180" as="geometry" />
        </mxCell>
        <mxCell id="5cK6sB0yTW3nAjwJAp6L-35" value="&lt;ul&gt;&lt;li&gt;add to cart functionality&lt;/li&gt;&lt;li&gt;a link to product details page&lt;/li&gt;&lt;li&gt;appropriate images for each product/service&lt;/li&gt;&lt;/ul&gt;" style="rounded=0;whiteSpace=wrap;html=1;sketch=1;hachureGap=4;jiggle=2;curveFitting=1;fontFamily=Architects Daughter;fontSource=https%3A%2F%2Ffonts.googleapis.com%2Fcss%3Ffamily%3DArchitects%2BDaughter;fontSize=20;align=left;" parent="1" vertex="1">
          <mxGeometry x="1960" y="990" width="310" height="180" as="geometry" />
        </mxCell>
        <mxCell id="5cK6sB0yTW3nAjwJAp6L-39" value="&lt;div style=&quot;text-align: center;&quot;&gt;&lt;span style=&quot;background-color: initial;&quot;&gt;ALL PAGES MUST INCLUDE&lt;/span&gt;&lt;/div&gt;&lt;ul&gt;&lt;li style=&quot;&quot;&gt;Navigation&lt;/li&gt;&lt;li&gt;Logo/Heading&lt;/li&gt;&lt;li&gt;Functiong Search Bar&lt;/li&gt;&lt;li&gt;Approriate Images&lt;/li&gt;&lt;/ul&gt;" style="rounded=0;whiteSpace=wrap;html=1;sketch=1;hachureGap=4;jiggle=2;curveFitting=1;fontFamily=Architects Daughter;fontSource=https%3A%2F%2Ffonts.googleapis.com%2Fcss%3Ffamily%3DArchitects%2BDaughter;fontSize=20;align=left;" parent="1" vertex="1">
          <mxGeometry x="-680" y="40" width="260" height="240" as="geometry" />
        </mxCell>
        <mxCell id="5cK6sB0yTW3nAjwJAp6L-40" value="navigated to through footer" style="rounded=0;whiteSpace=wrap;html=1;sketch=1;hachureGap=4;jiggle=2;curveFitting=1;fontFamily=Architects Daughter;fontSource=https%3A%2F%2Ffonts.googleapis.com%2Fcss%3Ffamily%3DArchitects%2BDaughter;fontSize=20;fillColor=#008a00;fontColor=#ffffff;strokeColor=#005700;" parent="1" vertex="1">
          <mxGeometry x="-360" y="160" width="160" height="70" as="geometry" />
        </mxCell>
        <mxCell id="5cK6sB0yTW3nAjwJAp6L-41" value="navigated to thorugh nav" style="rounded=0;whiteSpace=wrap;html=1;sketch=1;hachureGap=4;jiggle=2;curveFitting=1;fontFamily=Architects Daughter;fontSource=https%3A%2F%2Ffonts.googleapis.com%2Fcss%3Ffamily%3DArchitects%2BDaughter;fontSize=20;fillColor=#a20025;fontColor=#ffffff;strokeColor=#6F0000;" parent="1" vertex="1">
          <mxGeometry x="-360" y="40" width="160" height="70" as="geometry" />
        </mxCell>
        <mxCell id="5cK6sB0yTW3nAjwJAp6L-42" value="navigated from nav or home page" style="rounded=0;whiteSpace=wrap;html=1;sketch=1;hachureGap=4;jiggle=2;curveFitting=1;fontFamily=Architects Daughter;fontSource=https%3A%2F%2Ffonts.googleapis.com%2Fcss%3Ffamily%3DArchitects%2BDaughter;fontSize=20;fillColor=#0050ef;fontColor=#ffffff;strokeColor=#001DBC;" parent="1" vertex="1">
          <mxGeometry x="-360" y="280" width="160" height="90" as="geometry" />
        </mxCell>
        <mxCell id="5cK6sB0yTW3nAjwJAp6L-43" value="&lt;div style=&quot;text-align: center;&quot;&gt;&lt;span style=&quot;background-color: initial;&quot;&gt;Who are Cuisine Conepts&lt;/span&gt;&lt;/div&gt;&lt;div style=&quot;text-align: center;&quot;&gt;&lt;span style=&quot;background-color: initial;&quot;&gt;Our target customer is someone who does cooking as a hobby&lt;/span&gt;&lt;/div&gt;&lt;div style=&quot;text-align: center;&quot;&gt;&lt;br&gt;&lt;/div&gt;&lt;div style=&quot;&quot;&gt;Goals&lt;/div&gt;&lt;div style=&quot;&quot;&gt;&lt;ul&gt;&lt;li&gt;We want to create a website that appeals to someone that does it as a hobby so naturally we are going to try to perhaps give them advice or tell them why cooking is awesome&lt;/li&gt;&lt;li&gt;Our top priority is getting them to order but they can also check out a couple tutorials&lt;/li&gt;&lt;li&gt;our demographic is 30-40 so it should be very user friendly but it doesnt have to be oversimplified&amp;nbsp;&lt;/li&gt;&lt;li&gt;Personally I wanna go for a boring looking website so that it is familiar for the customer but also want some elements that make it look sharp like big tech websites&lt;/li&gt;&lt;/ul&gt;&lt;/div&gt;" style="rounded=0;whiteSpace=wrap;html=1;hachureGap=4;fontFamily=Architects Daughter;fontSource=https%3A%2F%2Ffonts.googleapis.com%2Fcss%3Ffamily%3DArchitects%2BDaughter;fontSize=20;align=left;strokeColor=#ffffff;sketch=1;curveFitting=1;jiggle=2;glass=0;shadow=0;" parent="1" vertex="1">
          <mxGeometry y="45" width="1390" height="365" as="geometry" />
        </mxCell>
        <mxCell id="WiGotsL5NRTnl8URfAcU-4" value="" style="ellipse;whiteSpace=wrap;html=1;aspect=fixed;sketch=1;hachureGap=4;jiggle=2;curveFitting=1;fontFamily=Architects Daughter;fontSource=https%3A%2F%2Ffonts.googleapis.com%2Fcss%3Ffamily%3DArchitects%2BDaughter;fontSize=20;fillColor=#f0a30a;fontColor=#000000;strokeColor=#BD7000;" parent="1" vertex="1">
          <mxGeometry x="-740" y="10" width="80" height="80" as="geometry" />
        </mxCell>
        <mxCell id="WiGotsL5NRTnl8URfAcU-8" value="" style="ellipse;whiteSpace=wrap;html=1;aspect=fixed;sketch=1;hachureGap=4;jiggle=2;curveFitting=1;fontFamily=Architects Daughter;fontSource=https%3A%2F%2Ffonts.googleapis.com%2Fcss%3Ffamily%3DArchitects%2BDaughter;fontSize=20;fillColor=#f0a30a;fontColor=#000000;strokeColor=#BD7000;" parent="1" vertex="1">
          <mxGeometry x="920" y="950" width="80" height="80" as="geometry" />
        </mxCell>
        <mxCell id="WiGotsL5NRTnl8URfAcU-12" value="" style="ellipse;whiteSpace=wrap;html=1;aspect=fixed;sketch=1;hachureGap=4;jiggle=2;curveFitting=1;fontFamily=Architects Daughter;fontSource=https%3A%2F%2Ffonts.googleapis.com%2Fcss%3Ffamily%3DArchitects%2BDaughter;fontSize=20;fillColor=#f0a30a;fontColor=#000000;strokeColor=#BD7000;" parent="1" vertex="1">
          <mxGeometry x="2230" y="900" width="80" height="80" as="geometry" />
        </mxCell>
        <mxCell id="WiGotsL5NRTnl8URfAcU-13" value="" style="ellipse;whiteSpace=wrap;html=1;aspect=fixed;sketch=1;hachureGap=4;jiggle=2;curveFitting=1;fontFamily=Architects Daughter;fontSource=https%3A%2F%2Ffonts.googleapis.com%2Fcss%3Ffamily%3DArchitects%2BDaughter;fontSize=20;fillColor=#fad9d5;strokeColor=#ae4132;" parent="1" vertex="1">
          <mxGeometry x="370" y="550" width="80" height="80" as="geometry" />
        </mxCell>
        <mxCell id="WiGotsL5NRTnl8URfAcU-14" value="" style="ellipse;whiteSpace=wrap;html=1;aspect=fixed;sketch=1;hachureGap=4;jiggle=2;curveFitting=1;fontFamily=Architects Daughter;fontSource=https%3A%2F%2Ffonts.googleapis.com%2Fcss%3Ffamily%3DArchitects%2BDaughter;fontSize=20;fillColor=#fad9d5;strokeColor=#ae4132;" parent="1" vertex="1">
          <mxGeometry x="-220" y="550" width="80" height="80" as="geometry" />
        </mxCell>
        <mxCell id="WiGotsL5NRTnl8URfAcU-15" value="" style="ellipse;whiteSpace=wrap;html=1;aspect=fixed;sketch=1;hachureGap=4;jiggle=2;curveFitting=1;fontFamily=Architects Daughter;fontSource=https%3A%2F%2Ffonts.googleapis.com%2Fcss%3Ffamily%3DArchitects%2BDaughter;fontSize=20;fillColor=#fad9d5;strokeColor=#ae4132;" parent="1" vertex="1">
          <mxGeometry x="-160" y="990" width="80" height="80" as="geometry" />
        </mxCell>
        <mxCell id="WiGotsL5NRTnl8URfAcU-16" value="" style="ellipse;whiteSpace=wrap;html=1;aspect=fixed;sketch=1;hachureGap=4;jiggle=2;curveFitting=1;fontFamily=Architects Daughter;fontSource=https%3A%2F%2Ffonts.googleapis.com%2Fcss%3Ffamily%3DArchitects%2BDaughter;fontSize=20;fillColor=#fad9d5;strokeColor=#ae4132;" parent="1" vertex="1">
          <mxGeometry x="-720" y="570" width="80" height="80" as="geometry" />
        </mxCell>
        <mxCell id="WiGotsL5NRTnl8URfAcU-17" value="" style="ellipse;whiteSpace=wrap;html=1;aspect=fixed;sketch=1;hachureGap=4;jiggle=2;curveFitting=1;fontFamily=Architects Daughter;fontSource=https%3A%2F%2Ffonts.googleapis.com%2Fcss%3Ffamily%3DArchitects%2BDaughter;fontSize=20;fillColor=#fad9d5;strokeColor=#ae4132;" parent="1" vertex="1">
          <mxGeometry x="-700" y="10" width="80" height="80" as="geometry" />
        </mxCell>
        <mxCell id="WiGotsL5NRTnl8URfAcU-18" value="" style="ellipse;whiteSpace=wrap;html=1;aspect=fixed;sketch=1;hachureGap=4;jiggle=2;curveFitting=1;fontFamily=Architects Daughter;fontSource=https%3A%2F%2Ffonts.googleapis.com%2Fcss%3Ffamily%3DArchitects%2BDaughter;fontSize=20;fillColor=#fad9d5;strokeColor=#ae4132;" parent="1" vertex="1">
          <mxGeometry x="990" y="550" width="80" height="80" as="geometry" />
        </mxCell>
        <mxCell id="WiGotsL5NRTnl8URfAcU-19" value="" style="ellipse;whiteSpace=wrap;html=1;aspect=fixed;sketch=1;hachureGap=4;jiggle=2;curveFitting=1;fontFamily=Architects Daughter;fontSource=https%3A%2F%2Ffonts.googleapis.com%2Fcss%3Ffamily%3DArchitects%2BDaughter;fontSize=20;fillColor=#fad9d5;strokeColor=#ae4132;" parent="1" vertex="1">
          <mxGeometry x="970" y="950" width="80" height="80" as="geometry" />
        </mxCell>
        <mxCell id="WiGotsL5NRTnl8URfAcU-20" value="" style="ellipse;whiteSpace=wrap;html=1;aspect=fixed;sketch=1;hachureGap=4;jiggle=2;curveFitting=1;fontFamily=Architects Daughter;fontSource=https%3A%2F%2Ffonts.googleapis.com%2Fcss%3Ffamily%3DArchitects%2BDaughter;fontSize=20;fillColor=#fad9d5;strokeColor=#ae4132;" parent="1" vertex="1">
          <mxGeometry x="1400" y="550" width="80" height="80" as="geometry" />
        </mxCell>
        <mxCell id="WiGotsL5NRTnl8URfAcU-21" value="" style="ellipse;whiteSpace=wrap;html=1;aspect=fixed;sketch=1;hachureGap=4;jiggle=2;curveFitting=1;fontFamily=Architects Daughter;fontSource=https%3A%2F%2Ffonts.googleapis.com%2Fcss%3Ffamily%3DArchitects%2BDaughter;fontSize=20;fillColor=#fad9d5;strokeColor=#ae4132;" parent="1" vertex="1">
          <mxGeometry x="1850" y="550" width="80" height="80" as="geometry" />
        </mxCell>
        <mxCell id="WiGotsL5NRTnl8URfAcU-22" value="" style="ellipse;whiteSpace=wrap;html=1;aspect=fixed;sketch=1;hachureGap=4;jiggle=2;curveFitting=1;fontFamily=Architects Daughter;fontSource=https%3A%2F%2Ffonts.googleapis.com%2Fcss%3Ffamily%3DArchitects%2BDaughter;fontSize=20;fillColor=#fad9d5;strokeColor=#ae4132;" parent="1" vertex="1">
          <mxGeometry x="1720" y="900" width="80" height="80" as="geometry" />
        </mxCell>
        <mxCell id="WiGotsL5NRTnl8URfAcU-23" value="" style="ellipse;whiteSpace=wrap;html=1;aspect=fixed;sketch=1;hachureGap=4;jiggle=2;curveFitting=1;fontFamily=Architects Daughter;fontSource=https%3A%2F%2Ffonts.googleapis.com%2Fcss%3Ffamily%3DArchitects%2BDaughter;fontSize=20;fillColor=#f0a30a;fontColor=#000000;strokeColor=#BD7000;" parent="1" vertex="1">
          <mxGeometry x="1500" y="80" width="80" height="80" as="geometry" />
        </mxCell>
        <mxCell id="WiGotsL5NRTnl8URfAcU-24" value="" style="ellipse;whiteSpace=wrap;html=1;aspect=fixed;sketch=1;hachureGap=4;jiggle=2;curveFitting=1;fontFamily=Architects Daughter;fontSource=https%3A%2F%2Ffonts.googleapis.com%2Fcss%3Ffamily%3DArchitects%2BDaughter;fontSize=20;fillColor=#fad9d5;strokeColor=#ae4132;" parent="1" vertex="1">
          <mxGeometry x="1500" y="200" width="80" height="80" as="geometry" />
        </mxCell>
        <mxCell id="WiGotsL5NRTnl8URfAcU-25" value="Mobile WireFrame Finished" style="rounded=1;whiteSpace=wrap;html=1;sketch=1;hachureGap=4;jiggle=2;curveFitting=1;fontFamily=Architects Daughter;fontSource=https%3A%2F%2Ffonts.googleapis.com%2Fcss%3Ffamily%3DArchitects%2BDaughter;fontSize=30;" parent="1" vertex="1">
          <mxGeometry x="1605" y="80" width="385" height="70" as="geometry" />
        </mxCell>
        <mxCell id="WiGotsL5NRTnl8URfAcU-26" value="Desktop WireFrame Finished" style="rounded=1;whiteSpace=wrap;html=1;sketch=1;hachureGap=4;jiggle=2;curveFitting=1;fontFamily=Architects Daughter;fontSource=https%3A%2F%2Ffonts.googleapis.com%2Fcss%3Ffamily%3DArchitects%2BDaughter;fontSize=30;" parent="1" vertex="1">
          <mxGeometry x="1600" y="210" width="420" height="70" as="geometry" />
        </mxCell>
        <mxCell id="WiGotsL5NRTnl8URfAcU-27" value="" style="ellipse;whiteSpace=wrap;html=1;aspect=fixed;sketch=1;hachureGap=4;jiggle=2;curveFitting=1;fontFamily=Architects Daughter;fontSource=https%3A%2F%2Ffonts.googleapis.com%2Fcss%3Ffamily%3DArchitects%2BDaughter;fontSize=20;fillColor=#fad9d5;strokeColor=#ae4132;" parent="1" vertex="1">
          <mxGeometry x="2260" y="900" width="80" height="80" as="geometry" />
        </mxCell>
      </root>
    </mxGraphModel>
  </diagram>
</mxfile>
